<?xml version="1.0" ?><svg id="Layer_1" style="enable-background:new 0 0 32 32;" version="1.1" viewBox="0 0 32 32" xml:space="preserve" xmlns="http://www.w3.org/2000/svg" xmlns:xlink="http://www.w3.org/1999/xlink"><style type="text/css">
	.st0{clip-path:url(#SVGID_2_);}
	.st1{clip-path:url(#SVGID_4_);}
</style><g><g><path d="M20.8125,26c-0.1376953,0-0.2758789-0.0283203-0.4057617-0.0859375l-10.3764648-4.6074219H6.8125    c-0.5522461,0-1-0.4472656-1-1v-8.6132813c0-0.5522461,0.4477539-1,1-1h3.2177734l10.3764648-4.6074219    c0.3100586-0.1376953,0.6674805-0.1083984,0.9506836,0.0756836C21.6411133,6.3461914,21.8125,6.6616211,21.8125,7v18    c0,0.3388672-0.1713867,0.6542969-0.4550781,0.8388672C21.1928711,25.9453125,21.0029297,26,20.8125,26z M7.8125,19.3066406    h2.4296875c0.1396484,0,0.277832,0.0292969,0.4057617,0.0859375L19.8125,23.4619141V8.5380859l-9.1645508,4.0693359    c-0.1279297,0.0566406-0.2661133,0.0859375-0.4057617,0.0859375H7.8125V19.3066406z"/></g><g><path d="M25.1875,21.5947266c-0.5522461,0-1-0.4472656-1-1v-9.4526367c0-0.5522461,0.4477539-1,1-1s1,0.4477539,1,1v9.4526367    C26.1875,21.1474609,25.7397461,21.5947266,25.1875,21.5947266z"/></g></g></svg>